<svg xmlns="http://www.w3.org/2000/svg" viewBox="2.6 -48.1 68.84 48.75">
  <path d="M 33.54 -5.27 C 33.54 -6.31 27.23 -12.09 19.96 -20.15 C 28.02 -23.6 32.11 -26.32 32.11 -28.8 C 32.11 -30.81 29.12 -36.34 27.23 -36.34 C 26.91 -36.34 26.2 -36.14 25.41 -35.43 L 15.02 -25.94 C 15.6 -34 16.12 -40.76 16.12 -42.45 C 16.12 -45.44 14.69 -48.1 9.36 -48.1 C 6.24 -48.1 5.98 -48.1 5.79 -47.91 C 5.59 -47.71 5.53 -47.26 5.46 -46.22 C 3.31 -11.51 2.6 -9.55 2.6 -6.37 C 2.6 -2.21 3.83 0 9.23 0 L 11.57 0 C 12.68 0 12.94 -0.26 13 -1.3 C 13.33 -5.4 13.71 -9.95 14.04 -14.5 C 18.66 -5.92 23.21 0.65 27.82 0.65 C 31.79 0.65 33.54 -4.36 33.54 -5.27 Z M 71.44 -16.77 C 71.44 -20.87 69.68 -23.73 65.78 -25.68 C 69.81 -28.34 70.98 -31.66 70.98 -35.1 C 70.98 -41.08 67.47 -46.73 56.81 -46.73 C 44.33 -46.73 39.72 -38.94 39.72 -32.18 C 39.72 -27.76 41.67 -25.03 44.07 -23.98 C 39.39 -20.93 37.12 -16.84 37.12 -12.03 C 37.12 -4.68 42.58 0.65 52.46 0.65 C 66.17 0.65 71.44 -9.69 71.44 -16.77 Z M 55.25 -21.58 C 57.46 -21.58 59.02 -20.61 59.02 -17.23 C 59.02 -14.63 58.11 -9.49 53.56 -9.49 C 50.96 -9.49 49.53 -11.12 49.53 -14.43 C 49.53 -16.77 50.25 -21.58 55.25 -21.58 Z M 56.42 -37.63 C 58.89 -37.63 60 -36.08 60 -34 C 60 -31.59 59.09 -27.56 55.12 -27.56 C 52.98 -27.56 51.74 -28.67 51.74 -31.46 C 51.74 -33.54 52.59 -37.63 56.42 -37.63 Z" fill="#fff"/>
</svg>